<?xml version="1.0" standalone="no"?>
<svg version="1.0" xmlns="http://www.w3.org/2000/svg"
 width="128.000000pt" height="128.000000pt" viewBox="0 0 128.000000 128.000000"
 preserveAspectRatio="xMidYMid meet">
<g transform="translate(0.000000,128.000000) scale(0.100000,-0.100000)"
fill="#343434" stroke="none">
<path d="M308 1069 c-16 -11 -28 -25 -28 -30 0 -5 148 -9 360 -9 319 0 359 2
353 15 -15 41 -49 45 -360 45 -285 -1 -299 -2 -325 -21z"/>
<path d="M115 988 c-42 -23 -45 -36 -45 -204 l0 -162 31 -26 c26 -22 40 -26
95 -26 l64 0 0 40 c0 60 23 97 68 110 24 7 130 10 305 8 l269 -3 24 -28 c23
-27 25 -35 22 -130 l-3 -102 -103 -5 c-102 -5 -104 -6 -133 -38 -28 -31 -29
-35 -29 -137 l0 -105 -154 0 c-205 0 -201 -3 -202 151 -1 90 -5 115 -17 123
-10 7 -20 6 -31 -3 -22 -18 -23 -206 -2 -256 28 -67 57 -75 266 -75 l185 0
143 143 142 142 0 82 0 81 76 4 c69 3 79 6 100 31 23 27 24 34 24 183 l0 156
-29 29 -29 29 -509 0 c-348 -1 -514 -4 -528 -12z m713 -677 l-83 -89 -3 70
c-4 96 7 108 100 108 l70 0 -84 -89z"/>
</g>
</svg>
